<?xml version="1.0" encoding="UTF-8"?>
<svg width="105.09mm" height="107.35mm" version="1.1" viewBox="0 0 105.09 107.35" xmlns="http://www.w3.org/2000/svg">
  <style>
      path {
          fill: #000;
      }
      @media (prefers-color-scheme: dark) {
          path {
              fill: #fff;
          }
      }
  </style>
  <g transform="translate(-49.179 -66.964)">
    <path d="m113.74 173.81c-3.0088-1.0405-5.3241-2.8824-7.3228-5.8257-3.0466-4.4863-4.292-9.7528-4.65-19.663l-0.1772-4.9055-0.68621 0.1592c-0.37741 0.0876-1.4601 0.45906-2.406 0.82555-7.9819 3.0926-20.174 12.088-32.558 24.021-4.5177 4.3534-5.8437 5.1549-8.8497 5.3494-2.3207 0.15018-3.6926-0.2142-5.2319-1.3896-1.7983-1.3731-2.7043-3.3872-2.6792-5.956 0.03018-3.0808 0.64234-4.304 4.6556-9.3026 8.6333-10.753 19.473-23.011 30.415-34.394 2.8883-3.0048 5.2515-5.5088 5.2515-5.5646 0-0.0557-4.9113-0.0558-10.914-2.6e-4 -12.191 0.11286-14.96-0.0706-17.366-1.1503-3.6459-1.6362-5.6879-5.4976-4.7006-8.8888 0.55891-1.9197 1.7294-3.4308 3.6516-4.7144 2.872-1.9179 2.9463-1.927 15.306-1.8813 14.314 0.0529 22.206-0.45569 33.073-2.1314 3.3645-0.5188 5.5736-0.7376 6.35-0.62892 4.3008 0.60198 7.8695 4.4444 8.1472 8.7722 0.1794 2.7954-0.54012 4.1374-3.8654 7.2094-2.9894 2.7617-7.2978 6.3736-10.466 8.7738l-2.2348 1.6933 1.7843 0.93892c2.1825 1.1484 5.9105 4.0253 7.4348 5.7373 4.1458 4.6563 5.0162 8.0747 5.0187 19.711l2e-3 7.0668 14.221 0.077c15.759 0.0853 15.092 0.0122 16.983 1.8612 1.1791 1.1528 1.8112 2.5016 2.1799 4.6519 0.64584 3.7662-0.73448 7.5616-3.3331 9.1648l-1.302 0.80326-17.087 0.0602c-16.587 0.0585-17.132 0.0445-18.645-0.47883zm-9.686-85.601c-9.0642-0.72291-13.65-1.4106-19.275-2.8902-5.8925-1.5502-10.147-3.3676-11.835-5.0562-3.0896-3.0896-2.9962-8.1961 0.20264-11.086 1.5864-1.4332 3.1737-2.0463 5.6396-2.1784 1.738-0.09309 2.4007-0.0067 3.7042 0.48272 8.5276 3.202 14.311 4.2254 26.194 4.6352 6.0633 0.20911 7.222 0.49355 9.2374 2.2675 1.8633 1.6402 2.5956 3.0857 2.7454 5.4197 0.11547 1.7994 0.0571 2.0986-0.71616 3.6693-0.93489 1.899-2.3236 3.2091-4.4085 4.1591-1.1712 0.53364-1.7531 0.59713-5.7998 0.63277-2.4738 0.02179-5.0337-0.0031-5.6885-0.05534z" stroke-width=".26458"/>
  </g>
</svg>
